<svg id="Layer_1" enable-background="new 0 0 512.002 512.002" height="512" viewBox="0 0 512.002 512.002" width="512" xmlns="http://www.w3.org/2000/svg"><g><g><path d="m290.369 286.458c-1.042 1.805-2.928 2.936-5.008 3.062-20.769 1.254-40.531 12.567-51.713 31.935-10.573 18.312-11.074 39.667-3.238 57.673 1.148 2.637 4.824 2.827 6.262.337l27.872-48.276c3.039-5.264 9.77-7.067 15.034-4.028l25.445 14.691c5.264 3.039 7.067 9.77 4.028 15.034l-27.872 48.276c-1.438 2.491.565 5.579 3.423 5.255 19.512-2.217 37.755-13.328 48.328-31.64 11.182-19.368 11.098-42.139 1.8-60.752-.931-1.864-.894-4.063.148-5.868l104.31-180.671c1.042-1.805 2.928-2.936 5.008-3.062 20.769-1.254 40.531-12.567 51.713-31.935 10.573-18.312 11.074-39.667 3.238-57.673-1.148-2.637-4.824-2.827-6.262-.337l-27.872 48.276c-3.039 5.264-9.77 7.067-15.034 4.028l-25.447-14.693c-5.264-3.039-7.067-9.77-4.028-15.034l27.872-48.276c1.438-2.491-.565-5.579-3.423-5.255-19.512 2.217-37.755 13.328-48.327 31.64-11.182 19.368-11.098 42.139-1.8 60.752.931 1.864.894 4.063-.148 5.868z" fill="#ebf4ff"/><g fill="#dae9fd"><path d="m499.145 38.813c-1.147-2.637-4.824-2.827-6.262-.337l-18.703 32.396c-.877 8.765-3.581 17.489-8.272 25.614-11.182 19.368-30.944 30.681-51.713 31.935-2.08.126-3.966 1.257-5.008 3.062l-104.31 180.671c-1.042 1.805-1.079 4.004-.147 5.868 9.298 18.614 9.383 41.384-1.8 60.752-4.689 8.122-10.892 14.819-18.04 19.96l-3.71 6.426c-1.438 2.491.565 5.579 3.422 5.255 19.512-2.217 37.755-13.328 48.328-31.64 11.182-19.368 11.098-42.139 1.8-60.752-.931-1.864-.894-4.063.147-5.868l104.31-180.671c1.042-1.805 2.928-2.936 5.008-3.062 20.769-1.254 40.531-12.567 51.713-31.935 10.572-18.313 11.073-39.667 3.237-57.674z"/><path d="m249.578 327.159c-5.264-3.039-11.995-1.236-15.034 4.028l-9.169 15.88c-1.1 10.989.675 22.042 5.034 32.059 1.148 2.637 4.824 2.827 6.262.337l25.875-44.817z"/></g><path d="m221.633 286.458c1.042 1.805 2.928 2.936 5.008 3.062 20.769 1.254 40.531 12.567 51.713 31.935 10.573 18.312 11.074 39.667 3.238 57.673-1.148 2.637-4.824 2.827-6.262.337l-27.872-48.276c-3.039-5.264-9.77-7.067-15.034-4.028l-25.445 14.691c-5.264 3.039-7.067 9.77-4.028 15.034l27.872 48.276c1.438 2.491-.565 5.579-3.423 5.255-19.512-2.217-37.755-13.328-48.327-31.64-11.182-19.368-11.098-42.139-1.8-60.752.931-1.864.894-4.063-.148-5.868l-104.309-180.674c-1.042-1.805-2.928-2.936-5.008-3.062-20.769-1.254-40.531-12.567-51.713-31.935-10.573-18.312-11.074-39.666-3.238-57.673 1.148-2.637 4.824-2.827 6.262-.337l27.872 48.276c3.039 5.264 9.77 7.067 15.034 4.028l25.445-14.69c5.264-3.039 7.067-9.77 4.028-15.034l-27.872-48.276c-1.438-2.491.565-5.579 3.423-5.255 19.512 2.217 37.755 13.328 48.327 31.64 11.182 19.368 11.098 42.139 1.8 60.752-.931 1.864-.894 4.063.148 5.868z" fill="#ebf4ff"/><g fill="#dae9fd"><path d="m278.355 321.454c-11.182-19.368-30.945-30.681-51.713-31.935-2.08-.126-3.966-1.257-5.008-3.062l-104.311-180.67c-1.042-1.805-1.079-4.004-.147-5.868 9.298-18.614 9.383-41.385-1.8-60.752-10.573-18.313-28.816-29.424-48.327-31.641-2.858-.325-4.861 2.764-3.423 5.255l3.71 6.426c7.148 5.141 13.351 11.838 18.04 19.96 11.182 19.368 11.098 42.139 1.8 60.752-.931 1.864-.894 4.063.147 5.868l104.311 180.671c1.042 1.805 2.928 2.936 5.008 3.062 20.769 1.254 40.531 12.567 51.713 31.935 4.691 8.125 7.395 16.849 8.272 25.614l18.704 32.396c1.438 2.491 5.114 2.3 6.262-.337 7.835-18.007 7.334-39.362-3.238-57.674z"/><path d="m202.951 356.884c-3.039-5.264-1.236-11.995 4.028-15.034l12.476-7.203-1.997-3.459c-3.039-5.264-9.77-7.067-15.034-4.028l-25.445 14.691c-5.264 3.039-7.067 9.77-4.028 15.034l24.162 41.85c8.969 6.451 19.429 10.447 30.288 11.68 2.857.325 4.86-2.764 3.422-5.255z"/></g><g><path d="m430.118 181.758h-348.233c-14.886 0-27.757 10.3-31.187 24.774-.092.387 6.534 8.625 6.456 9.018l-9.431 5.838-24.19 121.742 24.19 121.743 6.251 10.043c.078.393-3.368 4.425-3.276 4.813 3.43 14.473 16.301 24.773 31.187 24.773h348.233c14.886 0 27.756-10.3 31.187-24.773.092-.388-4.408-3.124-4.33-3.517l7.304-11.339 24.19-121.743-24.19-121.743-6.327-9.641c-.078-.393 3.444-4.827 3.352-5.215-3.43-14.473-16.3-24.773-31.186-24.773z" fill="#bdd8fc"/><path d="m457.952 211.746c-.078-.393 3.444-4.827 3.353-5.215-3.43-14.473-16.301-24.774-31.187-24.774h-30c15.284 0 28.444 10.859 31.442 25.945l26.909 135.427-26.909 135.428c-2.998 15.086-16.157 25.945-31.442 25.945h30c14.886 0 27.756-10.3 31.187-24.773.092-.388-4.409-3.124-4.33-3.517l7.305-11.339 24.19-121.743-24.19-121.743z" fill="#9dc7fb"/><path d="m497.501 358.13h-483c-3.866 0-7-3.134-7-7v-16c0-3.866 3.134-7 7-7h483c3.866 0 7 3.134 7 7v16c0 3.866-3.134 7-7 7z" fill="#4f6d8f"/><path d="m497.501 328.13h-30c3.866 0 7 3.134 7 7v16c0 3.866-3.134 7-7 7h30c3.866 0 7-3.134 7-7v-16c0-3.866-3.134-7-7-7z" fill="#455e7e"/><path d="m336.706 104.771h-161.409c-16.569 0-30 13.431-30 30v46.987h30v-43.987c0-1.657 1.343-3 3-3h155.408c1.657 0 3 1.343 3 3v43.987h30v-46.987c.001-16.569-13.431-30-29.999-30z" fill="#4f6d8f"/><g><path d="m336.706 104.771h-30c16.569 0 30 13.431 30 30v46.987h30v-46.987c0-16.569-13.432-30-30-30z" fill="#455e7e"/></g><g><circle cx="256.001" cy="343.13" fill="#ebf4ff" r="122.35"/><path d="m256.001 220.78c-5.079 0-10.083.315-15 .916 60.495 7.396 107.35 58.94 107.35 121.434s-46.855 114.038-107.35 121.434c4.917.601 9.921.916 15 .916 67.572 0 122.35-54.778 122.35-122.35s-54.778-122.35-122.35-122.35z" fill="#dae9fd"/><g><path d="m270.017 286.88h-28.031c-26.777 0-48.484 21.707-48.484 48.484v26.516h125v-26.516c-.001-26.777-21.708-48.484-48.485-48.484z" fill="#f6df7f"/><path d="m270.017 286.88h-28.031c-.33 0-.656.018-.984.025 26.321.526 47.5 22.012 47.5 48.46v26.516h30v-26.516c-.001-26.778-21.708-48.485-48.485-48.485z" fill="#efd06f"/><path d="m233.001 327.901v-43.521c0-7.732 6.268-14 14-14h18c7.732 0 14 6.268 14 14v43.521c0 2.209-1.791 4-4 4h-38c-2.209 0-4-1.791-4-4z" fill="#efd06f"/><path d="m265.001 270.38h-18c-.855 0-1.688.089-2.5.235 6.537 1.18 11.5 6.887 11.5 13.765v43.521c0 2.209-1.791 4-4 4h23c2.209 0 4-1.791 4-4v-43.521c0-7.732-6.268-14-14-14z" fill="#ebc56a"/><path d="m318.501 391.88h-125c-8.284 0-15-6.716-15-15 0-8.284 6.716-15 15-15h125c8.284 0 15 6.716 15 15 0 8.284-6.716 15-15 15z" fill="#efd06f"/><path d="m318.501 361.88h-30c8.284 0 15 6.716 15 15s-6.716 15-15 15h30c8.284 0 15-6.716 15-15s-6.716-15-15-15z" fill="#ebc56a"/></g></g></g></g><path d="m326.001 355.67v-20.308c0-24.863-16.358-46.482-39.669-53.554-1.277-10.645-10.347-18.929-21.331-18.929h-18c-10.984 0-20.054 8.284-21.331 18.929-23.311 7.071-39.669 28.69-39.669 53.554v20.308c-8.729 3.096-15 11.432-15 21.21 0 12.407 10.094 22.5 22.5 22.5h125c12.406 0 22.5-10.093 22.5-22.5 0-9.778-6.271-18.114-15-21.21zm-125-20.308c0-16.546 9.889-31.132 24.5-37.537v26.555c0 4.142 3.357 7.5 7.5 7.5s7.5-3.358 7.5-7.5v-40c0-3.584 2.916-6.5 6.5-6.5h18c3.584 0 6.5 2.916 6.5 6.5v40c0 4.142 3.357 7.5 7.5 7.5s7.5-3.358 7.5-7.5v-26.555c14.611 6.405 24.5 20.991 24.5 37.537v19.018h-110zm117.5 49.018h-125c-4.136 0-7.5-3.364-7.5-7.5 0-4.128 3.351-7.485 7.476-7.499.008 0 .016.001.024.001h125c.008 0 .016-.001.024-.001 4.125.013 7.476 3.371 7.476 7.499 0 4.136-3.364 7.5-7.5 7.5zm179-63.748h-5.853c.038-.061-22.731-114.392-22.731-114.392-3.685-18.529-20-31.978-38.796-31.978h-6.969l22.17-38.398c23.835-1.667 45.137-14.949 57.085-35.632 11.3-19.573 12.649-43.652 3.62-64.392-1.653-3.832-5.273-6.364-9.446-6.608-4.184-.241-8.093 1.857-10.194 5.491l-27.868 48.276c-1.178 1.871-2.797 2.338-4.787 1.287l-25.446-14.688c-1.677-.969-2.254-3.122-1.289-4.795l27.89-48.286c2.08-3.623 1.947-8.045-.347-11.543-2.288-3.489-6.278-5.364-10.435-4.904-22.495 2.56-42.67 15.772-53.967 35.341-11.946 20.679-12.798 45.767-2.316 67.253l-14.33 24.825c-3.4-17.203-18.598-30.218-36.784-30.218h-161.41c-18.186 0-33.385 13.015-36.784 30.218l-14.33-24.825c10.48-21.484 9.63-46.574-2.315-67.251-11.3-19.57-31.475-32.783-53.984-35.344-4.146-.46-8.134 1.417-10.421 4.905-2.294 3.498-2.427 7.92-.337 11.559l27.877 48.267c.968 1.677.391 3.83-1.282 4.797l-25.454 14.691c-1.945 1.027-3.606.577-4.781-1.286l-27.874-48.285c-2.099-3.628-6.021-5.728-10.191-5.485-4.173.244-7.793 2.776-9.438 6.586-9.038 20.761-7.688 44.84 3.612 64.416 11.944 20.674 33.236 33.954 57.083 35.63l22.17 38.398h-6.969c-18.796 0-35.111 13.449-38.796 31.979l-22.73 114.391h-5.853c-7.995 0-14.5 6.505-14.5 14.5v16c0 7.995 6.505 14.5 14.5 14.5h5.853c1.303 6.118 21.611 108.758 22.732 114.394 3.686 18.528 20.001 31.977 38.795 31.977h348.24c18.794 0 35.109-13.448 38.796-31.978 1.047-5.264 7.995-40.23 9.108-45.837.807-4.063-1.832-8.011-5.895-8.818-4.065-.804-8.011 1.833-8.818 5.895l-6.65 33.469h-36.181c-6.46 0-12.72-1.908-18.103-5.519l-27.873-18.695c-7.272-4.889-15.666-7.638-24.392-8.016 17.226-18.131 29.28-41.216 33.78-66.87h92.46l-6.058 30.488c-.807 4.063 1.832 8.011 5.895 8.818 3.961.787 8.013-1.792 8.818-5.894l6.639-33.412h5.853c7.995 0 14.5-6.505 14.5-14.5v-16c.001-7.997-6.504-14.502-14.499-14.502zm-123.295-164.379 26.969-46.718c2.298-3.978 2.435-8.825.366-12.963-8.54-17.098-7.947-37.157 1.585-53.659 7.654-13.258 19.938-22.583 34.438-26.398l-23.56 40.791c-5.098 8.836-2.059 20.177 6.777 25.283l25.446 14.688c8.649 5.055 20.288 1.971 25.277-6.773l23.546-40.788c3.949 14.469 2.017 29.763-5.635 43.017-9.535 16.505-26.611 27.049-45.658 28.205-4.621.267-8.757 2.807-11.063 6.797l-26.865 46.53h-31.625v-18.012zm-221.41-2.04c0-.07.002-.139 0-.209v-19.232c0-12.407 10.094-22.5 22.5-22.5h161.41c12.406 0 22.5 10.093 22.5 22.5v19.233c-.002.07 0 .139 0 .209v20.045h-15.001v-36.487c0-5.79-4.71-10.5-10.5-10.5h-83.745c-4.143 0-7.5 3.358-7.5 7.5s3.357 7.5 7.5 7.5h79.245v31.991h-146.408v-31.991h32.163c4.143 0 7.5-3.358 7.5-7.5s-3.357-7.5-7.5-7.5h-36.663c-5.79 0-10.5 4.71-10.5 10.5v36.487h-15.001zm-73.491-26.483c-2.305-3.988-6.44-6.528-11.04-6.794-19.068-1.156-36.145-11.701-45.679-28.203-7.649-13.251-9.583-28.539-5.634-43.017l23.546 40.789c4.966 8.703 16.585 11.861 25.271 6.772l25.454-14.692c8.832-5.104 11.871-16.445 6.771-25.285l-23.555-40.785c14.505 3.818 26.785 13.142 34.438 26.399 9.531 16.5 10.124 36.559 1.585 53.655-2.069 4.141-1.933 8.988.364 12.963l26.97 46.721v18.01h-31.625zm2.576 61.532h348.24c10.752 0 20.185 7.123 23.39 17.27h-33.03c-9.456 0-18.604 2.784-26.46 8.053l-27.878 18.709c-5.373 3.604-11.636 5.508-18.112 5.508h-14.811c-21.597-16.028-48.319-25.522-77.219-25.522s-55.622 9.494-77.219 25.522h-14.811c-6.477 0-12.739-1.905-18.11-5.507l-27.882-18.711c-7.854-5.268-17.002-8.052-26.458-8.052h-33.03c3.206-10.147 12.639-17.27 23.39-17.27zm-26.54 32.27h36.18c6.47 0 12.729 1.905 18.101 5.508l27.882 18.711c7.276 4.88 15.669 7.625 24.39 8.002-17.229 18.132-29.286 41.222-33.786 66.88h-92.46zm-40.34 129.1v-15h111.372c-.142 2.482-.222 4.981-.222 7.498 0 2.519.08 5.019.222 7.502zm20.647 15h92.46c4.5 25.654 16.555 48.74 33.78 66.87-8.726.378-17.119 3.127-24.385 8.012l-27.88 18.7c-5.383 3.61-11.643 5.519-18.103 5.519h-36.18zm330.496 87.339 27.88 18.7c7.863 5.274 17.012 8.062 26.458 8.062h33.03c-3.208 10.148-12.64 17.27-23.39 17.27h-348.241c-10.751 0-20.183-7.123-23.39-17.27h33.029c9.446 0 18.595-2.788 26.458-8.062l27.887-18.704c5.366-3.607 11.627-5.514 18.105-5.514h14.803c21.599 16.031 48.323 25.527 77.227 25.527s55.628-9.496 77.227-25.527h14.803c6.48 0 12.741 1.906 18.114 5.518zm-110.143 5.009c-63.328 0-114.85-51.521-114.85-114.85 0-63.328 51.521-114.85 114.85-114.85s114.85 51.521 114.85 114.85c0 63.328-51.522 114.85-114.85 114.85zm94.108-204.227c8.721-.377 17.114-3.121 24.392-8.003l27.878-18.709c5.373-3.604 11.633-5.509 18.103-5.509h36.18l19.692 99.1h-92.459c-4.5-25.658-16.556-48.747-33.786-66.879zm146.892 96.879h-111.372c.142-2.484.222-4.984.222-7.502 0-2.517-.08-5.016-.222-7.498h111.372z"/></g></svg>